<mxfile host="app.diagrams.net" modified="2024-03-04T08:37:04.499Z" agent="Mozilla/5.0 (Macintosh; Intel Mac OS X 10_15_7) AppleWebKit/605.1.15 (KHTML, like Gecko) Version/17.2.1 Safari/605.1.15" version="24.0.1" etag="liynv1zX0n75eSO0MYgf" type="github">
  <diagram name="第 1 页" id="VlWgUPlOByZ7nfI4wuXA">
    <mxGraphModel>
      <root>
        <mxCell id="0" />
        <mxCell id="1" parent="0" />
      </root>
    </mxGraphModel>
  </diagram>
</mxfile>
